<svg width="450" height="290" viewBox="0 0 450 290" fill="none" xmlns="http://www.w3.org/2000/svg">
<g clip-path="url(#clip0_24_93)">
<circle cx="61" cy="212" r="57" fill="#ADB2D4"/>
<rect x="1" y="155" width="60" height="135" fill="#ADB2D4"/>
<ellipse cx="393" cy="36" rx="57" ry="36" fill="#ADB2D4"/>
<rect x="333" width="60" height="135" fill="#ADB2D4"/>
<rect x="125" y="199" width="60" height="91" fill="#ADB2D4"/>
<rect x="125" width="60" height="136" fill="#ADB2D4"/>
<rect x="115" y="22" width="82" height="33" fill="#ADB2D4"/>
<ellipse cx="154" cy="176.5" rx="30" ry="21.5" fill="#ADB2D4"/>
<path d="M307.23 270.23C296.187 281.272 281.657 288.144 266.116 289.675C250.575 291.206 234.984 287.3 221.999 278.624C209.014 269.948 199.44 257.038 194.907 242.094C190.373 227.15 191.162 211.097 197.138 196.669C203.114 182.241 213.908 170.332 227.681 162.97C241.453 155.609 257.352 153.25 272.669 156.297C287.985 159.344 301.771 167.607 311.678 179.678C321.585 191.75 327 206.883 327 222.5L259.5 222.5L307.23 270.23Z" fill="#ADB2D4"/>
<path d="M56 89C56 90.1046 55.1043 91.003 54.0002 90.971C43.6249 90.6698 33.5421 88.0301 24.8881 83.3319C15.6789 78.3323 8.50125 71.2261 4.26275 62.9121C0.0242386 54.5981 -1.08475 45.4495 1.07603 36.6234C3.23679 27.7973 8.57028 19.6899 16.402 13.3266C24.2338 6.96335 34.212 2.6299 45.0749 0.87427C55.9379 -0.881358 67.1976 0.019694 77.4303 3.46348C87.6629 6.90727 96.4089 12.7391 102.562 20.2216C108.259 27.1489 111.497 35.2029 111.946 43.5009C112.006 44.6038 111.105 45.5 110 45.5H58C56.8954 45.5 56 46.3954 56 47.5V89Z" fill="#ADB2D4"/>
<path d="M56 47C56 45.8954 56.8957 44.997 57.9998 45.029C68.3751 45.3302 78.4579 47.9699 87.1119 52.6681C96.3211 57.6677 103.499 64.7739 107.737 73.0879C111.976 81.4019 113.085 90.5505 110.924 99.3766C108.763 108.203 103.43 116.31 95.598 122.673C87.7662 129.037 77.788 133.37 66.9251 135.126C56.0621 136.881 44.8024 135.98 34.5697 132.537C24.3371 129.093 15.5911 123.261 9.4377 115.778C3.74086 108.851 0.503126 100.797 0.0540637 92.4991C-0.005625 91.3962 0.895431 90.5 2 90.5H54C55.1046 90.5 56 89.6046 56 88.5V47Z" fill="#ADB2D4"/>
<path d="M333 156H450L409.7 242L450 291H333V156Z" fill="#ADB2D4"/>
<path d="M254 0L321 136H198L254 0Z" fill="#ADB2D4"/>
<path d="M385.607 51L449.713 111.286L449.713 135.326L427.106 135.326L363 75.0399L385.607 51Z" fill="#ADB2D4"/>
</g>
<defs>
<clipPath id="clip0_24_93">
<rect width="450" height="290" fill="white"/>
</clipPath>
</defs>
</svg>
